<svg xmlns="http://www.w3.org/2000/svg" xmlns:xlink="http://www.w3.org/1999/xlink" contentStyleType="text/css" data-diagram-type="SEQUENCE" height="1307px" preserveAspectRatio="none" style="width:1431px;height:1307px;background:#FFFFFF;" version="1.1" viewBox="0 0 1431 1307" width="1431px" zoomAndPan="magnify"><title>E-commerce Microservices Communication Pattern</title><defs/><g><text fill="#000000" font-family="Verdana" font-size="22" font-weight="bold" lengthAdjust="spacing" textLength="631.2432" x="398.7705" y="35.4209">E-commerce Microservices Communication Pattern</text><g><title>API Gateway</title><rect fill="#FFFFFF" height="474.2578" style="stroke:#000000;stroke-width:1;" width="10" x="197.0117" y="204.4688"/></g><g><title>API Gateway</title><rect fill="#FFFFFF" height="145.6641" style="stroke:#000000;stroke-width:1;" width="10" x="197.0117" y="1048.9922"/></g><g><title>Order Service</title><rect fill="#FFFFFF" height="415.9922" style="stroke:#000000;stroke-width:1;" width="10" x="391.7979" y="233.6016"/></g><g><title>Inventory Service</title><rect fill="#FFFFFF" height="111.5313" style="stroke:#000000;stroke-width:1;" width="10" x="592.665" y="313"/></g><g><title>Notification Service</title><rect fill="#FFFFFF" height="29.1328" style="stroke:#000000;stroke-width:1;" width="10" x="766.4556" y="591.3281"/></g><g><title>Notification Service</title><rect fill="#FFFFFF" height="29.1328" style="stroke:#000000;stroke-width:1;" width="10" x="766.4556" y="947.5938"/></g><g><title>Product Service</title><rect fill="#FFFFFF" height="87.3984" style="stroke:#000000;stroke-width:1;" width="10" x="933.6665" y="1078.125"/></g><g><title>Apache Kafka</title><rect fill="#FFFFFF" height="58.2656" style="stroke:#000000;stroke-width:1;" width="10" x="1073.6431" y="562.1953"/></g><g><title>Apache Kafka</title><rect fill="#FFFFFF" height="58.2656" style="stroke:#000000;stroke-width:1;" width="10" x="1073.6431" y="918.4609"/></g><g><title>Order DB</title><rect fill="#FFFFFF" height="29.1328" style="stroke:#000000;stroke-width:1;" width="10" x="1177.1021" y="453.6641"/></g><g><title>Order DB</title><rect fill="#FFFFFF" height="29.1328" style="stroke:#000000;stroke-width:1;" width="10" x="1177.1021" y="860.1953"/></g><g><title>Inventory DB</title><rect fill="#FFFFFF" height="29.1328" style="stroke:#000000;stroke-width:1;" width="10" x="1271.3872" y="342.1328"/></g><g><title>Product DB</title><rect fill="#FFFFFF" height="29.1328" style="stroke:#000000;stroke-width:1;" width="10" x="1372.5117" y="1107.2578"/></g><rect fill="#FFFFFF" height="402.6641" style="stroke:#000000;stroke-width:1;" width="1212.5352" x="15" y="386.2656"/><rect fill="#FFFFFF" height="102.2031" style="stroke:none;stroke-width:1;" width="1212.5352" x="15" y="686.7266"/><g><title>Customer</title><rect fill="#000000" fill-opacity="0.00000" height="1082.4531" width="8" x="58.002" y="130.2031"/><line style="stroke:#000000;stroke-width:1;" x1="62" x2="62" y1="130.2031" y2="1212.6563"/></g><g><title>API Gateway</title><rect fill="#000000" fill-opacity="0.00000" height="1082.4531" width="8" x="198.0117" y="130.2031"/><line style="stroke:#000000;stroke-width:1;" x1="201.79" x2="201.79" y1="130.2031" y2="1212.6563"/></g><g><title>Order Service</title><rect fill="#000000" fill-opacity="0.00000" height="1082.4531" width="8" x="392.7979" y="130.2031"/><line style="stroke:#000000;stroke-width:1;" x1="396.6865" x2="396.6865" y1="130.2031" y2="1212.6563"/></g><g><title>Inventory Service</title><rect fill="#000000" fill-opacity="0.00000" height="1082.4531" width="8" x="593.665" y="130.2031"/><line style="stroke:#000000;stroke-width:1;" x1="597.1348" x2="597.1348" y1="130.2031" y2="1212.6563"/></g><g><title>Notification Service</title><rect fill="#000000" fill-opacity="0.00000" height="1082.4531" width="8" x="767.4556" y="130.2031"/><line style="stroke:#000000;stroke-width:1;" x1="771.1953" x2="771.1953" y1="130.2031" y2="1212.6563"/></g><g><title>Product Service</title><rect fill="#000000" fill-opacity="0.00000" height="1082.4531" width="8" x="934.6665" y="130.2031"/><line style="stroke:#000000;stroke-width:1;" x1="937.7158" x2="937.7158" y1="130.2031" y2="1212.6563"/></g><g><title>Apache Kafka</title><rect fill="#000000" fill-opacity="0.00000" height="1082.4531" width="8" x="1074.6431" y="130.2031"/><line style="stroke:#000000;stroke-width:1;" x1="1078.6172" x2="1078.6172" y1="130.2031" y2="1212.6563"/></g><g><title>Order DB</title><rect fill="#000000" fill-opacity="0.00000" height="1082.4531" width="8" x="1178.1021" y="130.2031"/><line style="stroke:#000000;stroke-width:1;" x1="1181.6689" x2="1181.6689" y1="130.2031" y2="1212.6563"/></g><g><title>Inventory DB</title><rect fill="#000000" fill-opacity="0.00000" height="1082.4531" width="8" x="1272.3872" y="130.2031"/><line style="stroke:#000000;stroke-width:1;" x1="1275.5352" x2="1275.5352" y1="130.2031" y2="1212.6563"/></g><g><title>Product DB</title><rect fill="#000000" fill-opacity="0.00000" height="1082.4531" width="8" x="1373.5117" y="130.2031"/><line style="stroke:#000000;stroke-width:1;" x1="1377.2393" x2="1377.2393" y1="130.2031" y2="1212.6563"/></g><g class="participant participant-head" data-participant="customer"><text fill="#000000" font-family="Verdana" font-size="14" lengthAdjust="spacing" textLength="68.0039" x="25" y="126.9014">Customer</text><ellipse cx="62.002" cy="61.9063" fill="#FFFFFF" rx="8" ry="8" style="stroke:#000000;stroke-width:1;"/><path d="M62.002,69.9063 L62.002,96.9063 M49.002,77.9063 L75.002,77.9063 M62.002,96.9063 L49.002,111.9063 M62.002,96.9063 L75.002,111.9063" fill="none" style="stroke:#000000;stroke-width:1;"/></g><g class="participant participant-tail" data-participant="customer"><text fill="#000000" font-family="Verdana" font-size="14" lengthAdjust="spacing" textLength="68.0039" x="25" y="1224.6514">Customer</text><ellipse cx="62.002" cy="1236.9531" fill="#FFFFFF" rx="8" ry="8" style="stroke:#000000;stroke-width:1;"/><path d="M62.002,1244.9531 L62.002,1271.9531 M49.002,1252.9531 L75.002,1252.9531 M62.002,1271.9531 L49.002,1286.9531 M62.002,1271.9531 L75.002,1286.9531" fill="none" style="stroke:#000000;stroke-width:1;"/></g><g class="participant participant-head" data-participant="gateway"><rect fill="#FFFFFF" height="30.2969" rx="2.5" ry="2.5" style="stroke:#000000;stroke-width:1;" width="102.4434" x="150.79" y="98.9063"/><text fill="#000000" font-family="Verdana" font-size="14" lengthAdjust="spacing" textLength="88.4434" x="157.79" y="118.9014">API Gateway</text></g><g class="participant participant-tail" data-participant="gateway"><rect fill="#FFFFFF" height="30.2969" rx="2.5" ry="2.5" style="stroke:#000000;stroke-width:1;" width="102.4434" x="150.79" y="1211.6563"/><text fill="#000000" font-family="Verdana" font-size="14" lengthAdjust="spacing" textLength="88.4434" x="157.79" y="1231.6514">API Gateway</text></g><g class="participant participant-head" data-participant="order"><rect fill="#FFFFFF" height="30.2969" rx="2.5" ry="2.5" style="stroke:#000000;stroke-width:1;" width="110.2227" x="341.6865" y="98.9063"/><text fill="#000000" font-family="Verdana" font-size="14" lengthAdjust="spacing" textLength="96.2227" x="348.6865" y="118.9014">Order Service</text></g><g class="participant participant-tail" data-participant="order"><rect fill="#FFFFFF" height="30.2969" rx="2.5" ry="2.5" style="stroke:#000000;stroke-width:1;" width="110.2227" x="341.6865" y="1211.6563"/><text fill="#000000" font-family="Verdana" font-size="14" lengthAdjust="spacing" textLength="96.2227" x="348.6865" y="1231.6514">Order Service</text></g><g class="participant participant-head" data-participant="inventory"><rect fill="#FFFFFF" height="30.2969" rx="2.5" ry="2.5" style="stroke:#000000;stroke-width:1;" width="137.0605" x="529.1348" y="98.9063"/><text fill="#000000" font-family="Verdana" font-size="14" lengthAdjust="spacing" textLength="123.0605" x="536.1348" y="118.9014">Inventory Service</text></g><g class="participant participant-tail" data-participant="inventory"><rect fill="#FFFFFF" height="30.2969" rx="2.5" ry="2.5" style="stroke:#000000;stroke-width:1;" width="137.0605" x="529.1348" y="1211.6563"/><text fill="#000000" font-family="Verdana" font-size="14" lengthAdjust="spacing" textLength="123.0605" x="536.1348" y="1231.6514">Inventory Service</text></g><g class="participant participant-head" data-participant="notification"><rect fill="#FFFFFF" height="30.2969" rx="2.5" ry="2.5" style="stroke:#000000;stroke-width:1;" width="150.5205" x="696.1953" y="98.9063"/><text fill="#000000" font-family="Verdana" font-size="14" lengthAdjust="spacing" textLength="136.5205" x="703.1953" y="118.9014">Notification Service</text></g><g class="participant participant-tail" data-participant="notification"><rect fill="#FFFFFF" height="30.2969" rx="2.5" ry="2.5" style="stroke:#000000;stroke-width:1;" width="150.5205" x="696.1953" y="1211.6563"/><text fill="#000000" font-family="Verdana" font-size="14" lengthAdjust="spacing" textLength="136.5205" x="703.1953" y="1231.6514">Notification Service</text></g><g class="participant participant-head" data-participant="product"><rect fill="#FFFFFF" height="30.2969" rx="2.5" ry="2.5" style="stroke:#000000;stroke-width:1;" width="123.9014" x="876.7158" y="98.9063"/><text fill="#000000" font-family="Verdana" font-size="14" lengthAdjust="spacing" textLength="109.9014" x="883.7158" y="118.9014">Product Service</text></g><g class="participant participant-tail" data-participant="product"><rect fill="#FFFFFF" height="30.2969" rx="2.5" ry="2.5" style="stroke:#000000;stroke-width:1;" width="123.9014" x="876.7158" y="1211.6563"/><text fill="#000000" font-family="Verdana" font-size="14" lengthAdjust="spacing" textLength="109.9014" x="883.7158" y="1231.6514">Product Service</text></g><g class="participant participant-head" data-participant="kafka"><path d="M1025.6172,103.9063 L1131.6689,103.9063 C1136.6689,103.9063 1136.6689,117.0547 1136.6689,117.0547 C1136.6689,117.0547 1136.6689,130.2031 1131.6689,130.2031 L1025.6172,130.2031 C1020.6172,130.2031 1020.6172,117.0547 1020.6172,117.0547 C1020.6172,117.0547 1020.6172,103.9063 1025.6172,103.9063" fill="#FFFFFF" style="stroke:#000000;stroke-width:1;"/><path d="M1131.6689,103.9063 C1126.6689,103.9063 1126.6689,117.0547 1126.6689,117.0547 C1126.6689,130.2031 1131.6689,130.2031 1131.6689,130.2031" fill="none" style="stroke:#000000;stroke-width:1;"/><text fill="#000000" font-family="Verdana" font-size="14" lengthAdjust="spacing" textLength="96.0518" x="1025.6172" y="121.9014">Apache Kafka</text></g><g class="participant participant-tail" data-participant="kafka"><path d="M1025.6172,1211.6563 L1131.6689,1211.6563 C1136.6689,1211.6563 1136.6689,1224.8047 1136.6689,1224.8047 C1136.6689,1224.8047 1136.6689,1237.9531 1131.6689,1237.9531 L1025.6172,1237.9531 C1020.6172,1237.9531 1020.6172,1224.8047 1020.6172,1224.8047 C1020.6172,1224.8047 1020.6172,1211.6563 1025.6172,1211.6563" fill="#FFFFFF" style="stroke:#000000;stroke-width:1;"/><path d="M1131.6689,1211.6563 C1126.6689,1211.6563 1126.6689,1224.8047 1126.6689,1224.8047 C1126.6689,1237.9531 1131.6689,1237.9531 1131.6689,1237.9531" fill="none" style="stroke:#000000;stroke-width:1;"/><text fill="#000000" font-family="Verdana" font-size="14" lengthAdjust="spacing" textLength="96.0518" x="1025.6172" y="1229.6514">Apache Kafka</text></g><g class="participant participant-head" data-participant="orderdb"><text fill="#000000" font-family="Verdana" font-size="14" lengthAdjust="spacing" textLength="64.8662" x="1146.6689" y="110.6045">Order DB</text><text fill="#000000" font-family="Verdana" font-size="14" lengthAdjust="spacing" textLength="58.9941" x="1149.605" y="126.9014">(MySQL)</text><path d="M1164.1021,61.6094 C1164.1021,51.6094 1182.1021,51.6094 1182.1021,51.6094 C1182.1021,51.6094 1200.1021,51.6094 1200.1021,61.6094 L1200.1021,87.6094 C1200.1021,97.6094 1182.1021,97.6094 1182.1021,97.6094 C1182.1021,97.6094 1164.1021,97.6094 1164.1021,87.6094 L1164.1021,61.6094" fill="#FFFFFF" style="stroke:#000000;stroke-width:1.5;"/><path d="M1164.1021,61.6094 C1164.1021,71.6094 1182.1021,71.6094 1182.1021,71.6094 C1182.1021,71.6094 1200.1021,71.6094 1200.1021,61.6094" fill="none" style="stroke:#000000;stroke-width:1.5;"/></g><g class="participant participant-tail" data-participant="orderdb"><text fill="#000000" font-family="Verdana" font-size="14" lengthAdjust="spacing" textLength="64.8662" x="1146.6689" y="1224.6514">Order DB</text><text fill="#000000" font-family="Verdana" font-size="14" lengthAdjust="spacing" textLength="58.9941" x="1149.605" y="1240.9482">(MySQL)</text><path d="M1164.1021,1254.25 C1164.1021,1244.25 1182.1021,1244.25 1182.1021,1244.25 C1182.1021,1244.25 1200.1021,1244.25 1200.1021,1254.25 L1200.1021,1280.25 C1200.1021,1290.25 1182.1021,1290.25 1182.1021,1290.25 C1182.1021,1290.25 1164.1021,1290.25 1164.1021,1280.25 L1164.1021,1254.25" fill="#FFFFFF" style="stroke:#000000;stroke-width:1.5;"/><path d="M1164.1021,1254.25 C1164.1021,1264.25 1182.1021,1264.25 1182.1021,1264.25 C1182.1021,1264.25 1200.1021,1264.25 1200.1021,1254.25" fill="none" style="stroke:#000000;stroke-width:1.5;"/></g><g class="participant participant-head" data-participant="inventorydb"><text fill="#000000" font-family="Verdana" font-size="14" lengthAdjust="spacing" textLength="91.7041" x="1227.5352" y="110.6045">Inventory DB</text><text fill="#000000" font-family="Verdana" font-size="14" lengthAdjust="spacing" textLength="58.9941" x="1243.8901" y="126.9014">(MySQL)</text><path d="M1258.3872,61.6094 C1258.3872,51.6094 1276.3872,51.6094 1276.3872,51.6094 C1276.3872,51.6094 1294.3872,51.6094 1294.3872,61.6094 L1294.3872,87.6094 C1294.3872,97.6094 1276.3872,97.6094 1276.3872,97.6094 C1276.3872,97.6094 1258.3872,97.6094 1258.3872,87.6094 L1258.3872,61.6094" fill="#FFFFFF" style="stroke:#000000;stroke-width:1.5;"/><path d="M1258.3872,61.6094 C1258.3872,71.6094 1276.3872,71.6094 1276.3872,71.6094 C1276.3872,71.6094 1294.3872,71.6094 1294.3872,61.6094" fill="none" style="stroke:#000000;stroke-width:1.5;"/></g><g class="participant participant-tail" data-participant="inventorydb"><text fill="#000000" font-family="Verdana" font-size="14" lengthAdjust="spacing" textLength="91.7041" x="1227.5352" y="1224.6514">Inventory DB</text><text fill="#000000" font-family="Verdana" font-size="14" lengthAdjust="spacing" textLength="58.9941" x="1243.8901" y="1240.9482">(MySQL)</text><path d="M1258.3872,1254.25 C1258.3872,1244.25 1276.3872,1244.25 1276.3872,1244.25 C1276.3872,1244.25 1294.3872,1244.25 1294.3872,1254.25 L1294.3872,1280.25 C1294.3872,1290.25 1276.3872,1290.25 1276.3872,1290.25 C1276.3872,1290.25 1258.3872,1290.25 1258.3872,1280.25 L1258.3872,1254.25" fill="#FFFFFF" style="stroke:#000000;stroke-width:1.5;"/><path d="M1258.3872,1254.25 C1258.3872,1264.25 1276.3872,1264.25 1276.3872,1264.25 C1276.3872,1264.25 1294.3872,1264.25 1294.3872,1254.25" fill="none" style="stroke:#000000;stroke-width:1.5;"/></g><g class="participant participant-head" data-participant="productdb"><text fill="#000000" font-family="Verdana" font-size="14" lengthAdjust="spacing" textLength="78.5449" x="1335.2393" y="110.6045">Product DB</text><text fill="#000000" font-family="Verdana" font-size="14" lengthAdjust="spacing" textLength="78.2783" x="1335.3726" y="126.9014">(MongoDB)</text><path d="M1359.5117,61.6094 C1359.5117,51.6094 1377.5117,51.6094 1377.5117,51.6094 C1377.5117,51.6094 1395.5117,51.6094 1395.5117,61.6094 L1395.5117,87.6094 C1395.5117,97.6094 1377.5117,97.6094 1377.5117,97.6094 C1377.5117,97.6094 1359.5117,97.6094 1359.5117,87.6094 L1359.5117,61.6094" fill="#FFFFFF" style="stroke:#000000;stroke-width:1.5;"/><path d="M1359.5117,61.6094 C1359.5117,71.6094 1377.5117,71.6094 1377.5117,71.6094 C1377.5117,71.6094 1395.5117,71.6094 1395.5117,61.6094" fill="none" style="stroke:#000000;stroke-width:1.5;"/></g><g class="participant participant-tail" data-participant="productdb"><text fill="#000000" font-family="Verdana" font-size="14" lengthAdjust="spacing" textLength="78.5449" x="1335.2393" y="1224.6514">Product DB</text><text fill="#000000" font-family="Verdana" font-size="14" lengthAdjust="spacing" textLength="78.2783" x="1335.3726" y="1240.9482">(MongoDB)</text><path d="M1359.5117,1254.25 C1359.5117,1244.25 1377.5117,1244.25 1377.5117,1244.25 C1377.5117,1244.25 1395.5117,1244.25 1395.5117,1254.25 L1395.5117,1280.25 C1395.5117,1290.25 1377.5117,1290.25 1377.5117,1290.25 C1377.5117,1290.25 1359.5117,1290.25 1359.5117,1280.25 L1359.5117,1254.25" fill="#FFFFFF" style="stroke:#000000;stroke-width:1.5;"/><path d="M1359.5117,1254.25 C1359.5117,1264.25 1377.5117,1264.25 1377.5117,1264.25 C1377.5117,1264.25 1395.5117,1264.25 1395.5117,1254.25" fill="none" style="stroke:#000000;stroke-width:1.5;"/></g><g><title>API Gateway</title><rect fill="#FFFFFF" height="474.2578" style="stroke:#000000;stroke-width:1;" width="10" x="197.0117" y="204.4688"/></g><g><title>API Gateway</title><rect fill="#FFFFFF" height="145.6641" style="stroke:#000000;stroke-width:1;" width="10" x="197.0117" y="1048.9922"/></g><g><title>Order Service</title><rect fill="#FFFFFF" height="415.9922" style="stroke:#000000;stroke-width:1;" width="10" x="391.7979" y="233.6016"/></g><g><title>Inventory Service</title><rect fill="#FFFFFF" height="111.5313" style="stroke:#000000;stroke-width:1;" width="10" x="592.665" y="313"/></g><g><title>Notification Service</title><rect fill="#FFFFFF" height="29.1328" style="stroke:#000000;stroke-width:1;" width="10" x="766.4556" y="591.3281"/></g><g><title>Notification Service</title><rect fill="#FFFFFF" height="29.1328" style="stroke:#000000;stroke-width:1;" width="10" x="766.4556" y="947.5938"/></g><g><title>Product Service</title><rect fill="#FFFFFF" height="87.3984" style="stroke:#000000;stroke-width:1;" width="10" x="933.6665" y="1078.125"/></g><g><title>Apache Kafka</title><rect fill="#FFFFFF" height="58.2656" style="stroke:#000000;stroke-width:1;" width="10" x="1073.6431" y="562.1953"/></g><g><title>Apache Kafka</title><rect fill="#FFFFFF" height="58.2656" style="stroke:#000000;stroke-width:1;" width="10" x="1073.6431" y="918.4609"/></g><g><title>Order DB</title><rect fill="#FFFFFF" height="29.1328" style="stroke:#000000;stroke-width:1;" width="10" x="1177.1021" y="453.6641"/></g><g><title>Order DB</title><rect fill="#FFFFFF" height="29.1328" style="stroke:#000000;stroke-width:1;" width="10" x="1177.1021" y="860.1953"/></g><g><title>Inventory DB</title><rect fill="#FFFFFF" height="29.1328" style="stroke:#000000;stroke-width:1;" width="10" x="1271.3872" y="342.1328"/></g><g><title>Product DB</title><rect fill="#FFFFFF" height="29.1328" style="stroke:#000000;stroke-width:1;" width="10" x="1372.5117" y="1107.2578"/></g><rect fill="#FFFFFF" height="3" style="stroke:#FFFFFF;stroke-width:1;" width="1419.7842" x="5" y="160.7695"/><line style="stroke:#000000;stroke-width:0.5;" x1="5" x2="1424.7842" y1="160.7695" y2="160.7695"/><line style="stroke:#000000;stroke-width:0.5;" x1="5" x2="1424.7842" y1="163.7695" y2="163.7695"/><rect fill="#FFFFFF" height="23.1328" style="stroke:#000000;stroke-width:1;" width="180.9624" x="624.4109" y="150.2031"/><text fill="#000000" font-family="Verdana" font-size="13" font-weight="bold" lengthAdjust="spacing" textLength="162.4365" x="630.4109" y="166.27">Order Placement Flow</text><g class="message" data-participant-1="customer" data-participant-2="gateway"><polygon fill="#000000" points="185.0117,200.4688,195.0117,204.4688,185.0117,208.4688,189.0117,204.4688" style="stroke:#000000;stroke-width:1;"/><line style="stroke:#000000;stroke-width:1;" x1="62.002" x2="191.0117" y1="204.4688" y2="204.4688"/><text fill="#000000" font-family="Verdana" font-size="13" lengthAdjust="spacing" textLength="108.6528" x="69.002" y="199.4028">POST /api/orders</text></g><g class="message" data-participant-1="gateway" data-participant-2="order"><polygon fill="#000000" points="379.7979,229.6016,389.7979,233.6016,379.7979,237.6016,383.7979,233.6016" style="stroke:#000000;stroke-width:1;"/><line style="stroke:#000000;stroke-width:1;" x1="207.0117" x2="385.7979" y1="233.6016" y2="233.6016"/><text fill="#000000" font-family="Verdana" font-size="13" lengthAdjust="spacing" textLength="142.3081" x="214.0117" y="228.5356">Create Order Request</text></g><path d="M327,246.6016 L327,286.6016 L666,286.6016 L666,256.6016 L656,246.6016 L327,246.6016" fill="#FFFFFF" style="stroke:#000000;stroke-width:1;"/><path d="M656,246.6016 L656,256.6016 L666,256.6016 L656,246.6016" fill="#FFFFFF" style="stroke:#000000;stroke-width:1;"/><text fill="#000000" font-family="Verdana" font-size="13" lengthAdjust="spacing" textLength="190.6709" x="396.9189" y="263.6685">Synchronous Communication</text><text fill="#000000" font-family="Verdana" font-size="13" lengthAdjust="spacing" textLength="80.4438" x="396.9189" y="278.8013">(OpenFeign)</text><g class="message" data-participant-1="order" data-participant-2="inventory"><polygon fill="#000000" points="580.665,309,590.665,313,580.665,317,584.665,313" style="stroke:#000000;stroke-width:1;"/><line style="stroke:#000000;stroke-width:1;" x1="401.7979" x2="586.665" y1="313" y2="313"/><text fill="#000000" font-family="Verdana" font-size="13" lengthAdjust="spacing" textLength="155.854" x="408.7979" y="307.9341">Check Stock Availability</text></g><g class="message" data-participant-1="inventory" data-participant-2="inventorydb"><polygon fill="#000000" points="1259.3872,338.1328,1269.3872,342.1328,1259.3872,346.1328,1263.3872,342.1328" style="stroke:#000000;stroke-width:1;"/><line style="stroke:#000000;stroke-width:1;" x1="602.665" x2="1265.3872" y1="342.1328" y2="342.1328"/><text fill="#000000" font-family="Verdana" font-size="13" lengthAdjust="spacing" textLength="118.2949" x="609.665" y="337.0669">Query Stock Level</text></g><g class="message" data-participant-1="inventorydb" data-participant-2="inventory"><polygon fill="#000000" points="613.665,367.2656,603.665,371.2656,613.665,375.2656,609.665,371.2656" style="stroke:#000000;stroke-width:1;"/><line style="stroke:#000000;stroke-width:1;stroke-dasharray:2.0,2.0;" x1="607.665" x2="1275.3872" y1="371.2656" y2="371.2656"/><text fill="#000000" font-family="Verdana" font-size="13" lengthAdjust="spacing" textLength="71.1509" x="619.665" y="366.1997">Stock Data</text></g><path d="M15,386.2656 L79.4429,386.2656 L79.4429,393.3984 L69.4429,403.3984 L15,403.3984 L15,386.2656" fill="#FFFFFF" style="stroke:#000000;stroke-width:1;"/><rect fill="none" height="402.6641" style="stroke:#000000;stroke-width:1;" width="1212.5352" x="15" y="386.2656"/><text fill="#000000" font-family="Verdana" font-size="13" font-weight="bold" lengthAdjust="spacing" textLength="19.4429" x="30" y="399.3325">alt</text><text fill="#000000" font-family="Verdana" font-size="11" font-weight="bold" lengthAdjust="spacing" textLength="105.6333" x="94.4429" y="398.4761">[Stock Available]</text><g class="message" data-participant-1="inventory" data-participant-2="order"><polygon fill="#000000" points="412.7979,420.5313,402.7979,424.5313,412.7979,428.5313,408.7979,424.5313" style="stroke:#000000;stroke-width:1;"/><line style="stroke:#000000;stroke-width:1;stroke-dasharray:2.0,2.0;" x1="406.7979" x2="596.665" y1="424.5313" y2="424.5313"/><text fill="#000000" font-family="Verdana" font-size="13" lengthAdjust="spacing" textLength="166.8672" x="418.7979" y="419.4653">Stock Available Response</text></g><g class="message" data-participant-1="order" data-participant-2="orderdb"><polygon fill="#000000" points="1165.1021,449.6641,1175.1021,453.6641,1165.1021,457.6641,1169.1021,453.6641" style="stroke:#000000;stroke-width:1;"/><line style="stroke:#000000;stroke-width:1;" x1="401.7979" x2="1171.1021" y1="453.6641" y2="453.6641"/><text fill="#000000" font-family="Verdana" font-size="13" lengthAdjust="spacing" textLength="73.2139" x="408.7979" y="448.5981">Save Order</text></g><g class="message" data-participant-1="orderdb" data-participant-2="order"><polygon fill="#000000" points="412.7979,478.7969,402.7979,482.7969,412.7979,486.7969,408.7979,482.7969" style="stroke:#000000;stroke-width:1;"/><line style="stroke:#000000;stroke-width:1;stroke-dasharray:2.0,2.0;" x1="406.7979" x2="1181.1021" y1="482.7969" y2="482.7969"/><text fill="#000000" font-family="Verdana" font-size="13" lengthAdjust="spacing" textLength="81.4658" x="418.7979" y="477.731">Order Saved</text></g><path d="M337,495.7969 L337,535.7969 L1136,535.7969 L1136,505.7969 L1126,495.7969 L337,495.7969" fill="#FFFFFF" style="stroke:#000000;stroke-width:1;"/><path d="M1126,495.7969 L1126,505.7969 L1136,505.7969 L1126,495.7969" fill="#FFFFFF" style="stroke:#000000;stroke-width:1;"/><text fill="#000000" font-family="Verdana" font-size="13" lengthAdjust="spacing" textLength="198.085" x="633.4487" y="512.8638">Asynchronous Communication</text><text fill="#000000" font-family="Verdana" font-size="13" lengthAdjust="spacing" textLength="99.3345" x="633.4487" y="527.9966">(Apache Kafka)</text><g class="message" data-participant-1="order" data-participant-2="kafka"><polygon fill="#000000" points="1061.6431,558.1953,1071.6431,562.1953,1061.6431,566.1953,1065.6431,562.1953" style="stroke:#000000;stroke-width:1;"/><line style="stroke:#000000;stroke-width:1;" x1="401.7979" x2="1067.6431" y1="562.1953" y2="562.1953"/><text fill="#000000" font-family="Verdana" font-size="13" lengthAdjust="spacing" textLength="185.1104" x="408.7979" y="557.1294">Publish Order Created Event</text></g><g class="message" data-participant-1="kafka" data-participant-2="notification"><polygon fill="#000000" points="787.4556,587.3281,777.4556,591.3281,787.4556,595.3281,783.4556,591.3281" style="stroke:#000000;stroke-width:1;"/><line style="stroke:#000000;stroke-width:1;" x1="781.4556" x2="1072.6431" y1="591.3281" y2="591.3281"/><text fill="#000000" font-family="Verdana" font-size="13" lengthAdjust="spacing" textLength="134.4116" x="793.4556" y="586.2622">Order Created Event</text></g><g class="message" data-participant-1="notification" data-participant-2="customer"><polygon fill="#000000" points="73.002,616.4609,63.002,620.4609,73.002,624.4609,69.002,620.4609" style="stroke:#000000;stroke-width:1;"/><line style="stroke:#000000;stroke-width:1;" x1="67.002" x2="770.4556" y1="620.4609" y2="620.4609"/><text fill="#000000" font-family="Verdana" font-size="13" lengthAdjust="spacing" textLength="162.5127" x="79.002" y="615.395">Send Order Confirmation</text></g><g class="message" data-participant-1="order" data-participant-2="gateway"><polygon fill="#000000" points="218.0117,645.5938,208.0117,649.5938,218.0117,653.5938,214.0117,649.5938" style="stroke:#000000;stroke-width:1;"/><line style="stroke:#000000;stroke-width:1;stroke-dasharray:2.0,2.0;" x1="212.0117" x2="395.7979" y1="649.5938" y2="649.5938"/><text fill="#000000" font-family="Verdana" font-size="13" lengthAdjust="spacing" textLength="160.7861" x="224.0117" y="644.5278">Order Success Response</text></g><g class="message" data-participant-1="gateway" data-participant-2="customer"><polygon fill="#000000" points="73.002,674.7266,63.002,678.7266,73.002,682.7266,69.002,678.7266" style="stroke:#000000;stroke-width:1;"/><line style="stroke:#000000;stroke-width:1;stroke-dasharray:2.0,2.0;" x1="67.002" x2="201.0117" y1="678.7266" y2="678.7266"/><text fill="#000000" font-family="Verdana" font-size="13" lengthAdjust="spacing" textLength="80.6787" x="79.002" y="673.6606">201 Created</text></g><line style="stroke:#000000;stroke-width:1;stroke-dasharray:2.0,2.0;" x1="15" x2="1227.5352" y1="687.7266" y2="687.7266"/><text fill="#000000" font-family="Verdana" font-size="11" font-weight="bold" lengthAdjust="spacing" textLength="131.4844" x="20" y="697.937">[Stock Not Available]</text><g class="message" data-participant-1="inventory" data-participant-2="order"><polygon fill="#000000" points="407.7979,718.6641,397.7979,722.6641,407.7979,726.6641,403.7979,722.6641" style="stroke:#000000;stroke-width:1;"/><line style="stroke:#000000;stroke-width:1;stroke-dasharray:2.0,2.0;" x1="401.7979" x2="596.665" y1="722.6641" y2="722.6641"/><text fill="#000000" font-family="Verdana" font-size="13" lengthAdjust="spacing" textLength="126.623" x="413.7979" y="717.5981">Stock Not Available</text></g><g class="message" data-participant-1="order" data-participant-2="gateway"><polygon fill="#000000" points="213.0117,747.7969,203.0117,751.7969,213.0117,755.7969,209.0117,751.7969" style="stroke:#000000;stroke-width:1;"/><line style="stroke:#000000;stroke-width:1;stroke-dasharray:2.0,2.0;" x1="207.0117" x2="395.7979" y1="751.7969" y2="751.7969"/><text fill="#000000" font-family="Verdana" font-size="13" lengthAdjust="spacing" textLength="152.877" x="219.0117" y="746.731">Stock Unavailable Error</text></g><g class="message" data-participant-1="gateway" data-participant-2="customer"><polygon fill="#000000" points="73.002,776.9297,63.002,780.9297,73.002,784.9297,69.002,780.9297" style="stroke:#000000;stroke-width:1;"/><line style="stroke:#000000;stroke-width:1;stroke-dasharray:2.0,2.0;" x1="67.002" x2="201.0117" y1="780.9297" y2="780.9297"/><text fill="#000000" font-family="Verdana" font-size="13" lengthAdjust="spacing" textLength="111.6045" x="79.002" y="775.8638">400 Bad Request</text></g><rect fill="#FFFFFF" height="3" style="stroke:#FFFFFF;stroke-width:1;" width="1419.7842" x="5" y="816.4961"/><line style="stroke:#000000;stroke-width:0.5;" x1="5" x2="1424.7842" y1="816.4961" y2="816.4961"/><line style="stroke:#000000;stroke-width:0.5;" x1="5" x2="1424.7842" y1="819.4961" y2="819.4961"/><rect fill="#FFFFFF" height="23.1328" style="stroke:#000000;stroke-width:1;" width="208.9048" x="610.4397" y="805.9297"/><text fill="#000000" font-family="Verdana" font-size="13" font-weight="bold" lengthAdjust="spacing" textLength="190.3789" x="616.4397" y="821.9966">Order Status Update Flow</text><g class="message" data-participant-1="order" data-participant-2="orderdb"><polygon fill="#000000" points="1165.1021,856.1953,1175.1021,860.1953,1165.1021,864.1953,1169.1021,860.1953" style="stroke:#000000;stroke-width:1;"/><line style="stroke:#000000;stroke-width:1;" x1="396.7979" x2="1171.1021" y1="860.1953" y2="860.1953"/><text fill="#000000" font-family="Verdana" font-size="13" lengthAdjust="spacing" textLength="133.9419" x="403.7979" y="855.1294">Update Order Status</text></g><g class="message" data-participant-1="orderdb" data-participant-2="order"><polygon fill="#000000" points="407.7979,885.3281,397.7979,889.3281,407.7979,893.3281,403.7979,889.3281" style="stroke:#000000;stroke-width:1;"/><line style="stroke:#000000;stroke-width:1;stroke-dasharray:2.0,2.0;" x1="401.7979" x2="1181.1021" y1="889.3281" y2="889.3281"/><text fill="#000000" font-family="Verdana" font-size="13" lengthAdjust="spacing" textLength="100.8896" x="413.7979" y="884.2622">Status Updated</text></g><g class="message" data-participant-1="order" data-participant-2="kafka"><polygon fill="#000000" points="1061.6431,914.4609,1071.6431,918.4609,1061.6431,922.4609,1065.6431,918.4609" style="stroke:#000000;stroke-width:1;"/><line style="stroke:#000000;stroke-width:1;" x1="396.7979" x2="1067.6431" y1="918.4609" y2="918.4609"/><text fill="#000000" font-family="Verdana" font-size="13" lengthAdjust="spacing" textLength="234.2666" x="403.7979" y="913.395">Publish Order Status Updated Event</text></g><g class="message" data-participant-1="kafka" data-participant-2="notification"><polygon fill="#000000" points="787.4556,943.5938,777.4556,947.5938,787.4556,951.5938,783.4556,947.5938" style="stroke:#000000;stroke-width:1;"/><line style="stroke:#000000;stroke-width:1;" x1="781.4556" x2="1072.6431" y1="947.5938" y2="947.5938"/><text fill="#000000" font-family="Verdana" font-size="13" lengthAdjust="spacing" textLength="124.103" x="793.4556" y="942.5278">Order Status Event</text></g><g class="message" data-participant-1="notification" data-participant-2="customer"><polygon fill="#000000" points="73.002,972.7266,63.002,976.7266,73.002,980.7266,69.002,976.7266" style="stroke:#000000;stroke-width:1;"/><line style="stroke:#000000;stroke-width:1;" x1="67.002" x2="770.4556" y1="976.7266" y2="976.7266"/><text fill="#000000" font-family="Verdana" font-size="13" lengthAdjust="spacing" textLength="208.2349" x="79.002" y="971.6606">Send Status Update Notification</text></g><rect fill="#FFFFFF" height="3" style="stroke:#FFFFFF;stroke-width:1;" width="1419.7842" x="5" y="1005.293"/><line style="stroke:#000000;stroke-width:0.5;" x1="5" x2="1424.7842" y1="1005.293" y2="1005.293"/><line style="stroke:#000000;stroke-width:0.5;" x1="5" x2="1424.7842" y1="1008.293" y2="1008.293"/><rect fill="#FFFFFF" height="23.1328" style="stroke:#000000;stroke-width:1;" width="294.522" x="567.6311" y="994.7266"/><text fill="#000000" font-family="Verdana" font-size="13" font-weight="bold" lengthAdjust="spacing" textLength="275.9961" x="573.6311" y="1010.7935">Product Catalog Query (Independent)</text><g class="message" data-participant-1="customer" data-participant-2="gateway"><polygon fill="#000000" points="185.0117,1044.9922,195.0117,1048.9922,185.0117,1052.9922,189.0117,1048.9922" style="stroke:#000000;stroke-width:1;"/><line style="stroke:#000000;stroke-width:1;" x1="62.002" x2="191.0117" y1="1048.9922" y2="1048.9922"/><text fill="#000000" font-family="Verdana" font-size="13" lengthAdjust="spacing" textLength="116.0098" x="69.002" y="1043.9263">GET /api/products</text></g><g class="message" data-participant-1="gateway" data-participant-2="product"><polygon fill="#000000" points="921.6665,1074.125,931.6665,1078.125,921.6665,1082.125,925.6665,1078.125" style="stroke:#000000;stroke-width:1;"/><line style="stroke:#000000;stroke-width:1;" x1="207.0117" x2="927.6665" y1="1078.125" y2="1078.125"/><text fill="#000000" font-family="Verdana" font-size="13" lengthAdjust="spacing" textLength="83.9478" x="214.0117" y="1073.0591">Get Products</text></g><g class="message" data-participant-1="product" data-participant-2="productdb"><polygon fill="#000000" points="1360.5117,1103.2578,1370.5117,1107.2578,1360.5117,1111.2578,1364.5117,1107.2578" style="stroke:#000000;stroke-width:1;"/><line style="stroke:#000000;stroke-width:1;" x1="943.6665" x2="1366.5117" y1="1107.2578" y2="1107.2578"/><text fill="#000000" font-family="Verdana" font-size="13" lengthAdjust="spacing" textLength="100.2866" x="950.6665" y="1102.1919">Query Products</text></g><g class="message" data-participant-1="productdb" data-participant-2="product"><polygon fill="#000000" points="954.6665,1132.3906,944.6665,1136.3906,954.6665,1140.3906,950.6665,1136.3906" style="stroke:#000000;stroke-width:1;"/><line style="stroke:#000000;stroke-width:1;stroke-dasharray:2.0,2.0;" x1="948.6665" x2="1376.5117" y1="1136.3906" y2="1136.3906"/><text fill="#000000" font-family="Verdana" font-size="13" lengthAdjust="spacing" textLength="85.0459" x="960.6665" y="1131.3247">Product Data</text></g><g class="message" data-participant-1="product" data-participant-2="gateway"><polygon fill="#000000" points="218.0117,1161.5234,208.0117,1165.5234,218.0117,1169.5234,214.0117,1165.5234" style="stroke:#000000;stroke-width:1;"/><line style="stroke:#000000;stroke-width:1;stroke-dasharray:2.0,2.0;" x1="212.0117" x2="937.6665" y1="1165.5234" y2="1165.5234"/><text fill="#000000" font-family="Verdana" font-size="13" lengthAdjust="spacing" textLength="76.7305" x="224.0117" y="1160.4575">Product List</text></g><g class="message" data-participant-1="gateway" data-participant-2="customer"><polygon fill="#000000" points="73.002,1190.6563,63.002,1194.6563,73.002,1198.6563,69.002,1194.6563" style="stroke:#000000;stroke-width:1;"/><line style="stroke:#000000;stroke-width:1;stroke-dasharray:2.0,2.0;" x1="67.002" x2="201.0117" y1="1194.6563" y2="1194.6563"/><text fill="#000000" font-family="Verdana" font-size="13" lengthAdjust="spacing" textLength="47.7026" x="79.002" y="1189.5903">200 OK</text></g><!--SRC=[bLLDKzim4BthLwYSo4mPqavFcKbd80I60PhGb5ilYhGa6Xp9bUKm-VTTov8jsN5eEJX2Ucy_j6zNd-mMTa3pZ4b5hBGPqFa5rxiT60xqINAZ2p1xoQ6WCzmkbUJCIgteabaBHX72kDM6ditAmcgadL5MKEx_8JapLdAPCsNfsTNodjun2-_iu52RUfs25aQ0eQlQgOFfQYS5tQizA7HxI80oxARW7zhArn1sZ5VHGKfP6YrARXDqNk-HFoMKWCdaZ6-1Fh3ND-REtweL4SooDIiW979p_LkTFnrMpu-ZDXcnZd1jBbriaq-23x7LQAqs-kPw54U8Q3ATqjh_CcCSAun9tMRwdKwdX8JYq8lleGGJkboiVj5BbijB5s5HbLNkyRIfal-jM0uoeJC35Q1sz1FmOWhRykgo4RnaNEyHuJO-jrbDwEgW-DPefSkEkZ2pHGxg5kH6ZOWZLduZwcmB_8skhCRlrPx9ZArb9ksXzT-geLabDiHwGfzBg3Jah3p27h8ZTBpEQ4qlqZXgxWrMXmWuIYOiiscW6H2AVr5OxPrsW7YjHQvLKJEEUN07xjDSazSO6cDxNnu7I4k3eJKidvUFmRSWaaNNRSnqdrvvNHjCw5LnehPnxupIs3rzMQupMMnzABNG19rNEQUfr5rNRRbLPI9kwyd75f8f4EVL3Wqq6fe6BnMK25QrUfLcrrAZc-gPZSxQeEFautRq9IWv3jvYK0IwAMtJd4ceNyTVGkPTQkXg0XaEbLfrE2Z_NQ9zyA0wZ-HNstXHh17wt1Xj_ZV1R-CnlMQY6Ju3IMB5ef6uiioYA5zoKM6QiTXl7u-8MQJN2KVw9t4Wo97s8QVrdXhmeksevwJSlO4ECP4a-K3XwIt5RoWPKdbFuTMTX-TgXYCoqni_Si_lbG2Sy08370s_IdTp_oZvf-tqi-H1I0CR_4QCy83xtuZHFWM3B2nQitArRfmrxt7d3UWHqmu8j4U9kktJo517Z-dYWVGr_XS0]--></g></svg>